<svg xmlns="http://www.w3.org/2000/svg" fill="none" viewBox="0 0 168 30" class="w-[8.75rem] md:w-[10.563rem]">
    <path fill="currentColor" d="M45.592 7.168h4.14l3.637 12.067 3.367-12.067h3.13l3.435 12.067 3.67-12.067h4.174l-5.824 17.4h-3.603l-3.366-12-3.367 12h-3.569l-5.824-17.4ZM70.606 17.667c0-4.234 2.93-7.167 7.138-7.167 4.612 0 7.306 3.167 6.868 8H74.31c.067 2.233 1.447 3.533 3.636 3.533 1.582 0 2.626-.566 3.131-1.7l3.367.4C83.434 23.4 81.178 24.8 77.81 24.8c-4.31.033-7.205-2.8-7.205-7.133Zm10.64-1.567c-.135-1.833-1.415-3-3.367-3-1.886 0-3.233 1.067-3.468 3h6.834ZM90.74 22.3v2.234h-3.704V6.301h3.704v6.8c.673-1.6 2.457-2.567 4.444-2.567 3.467 0 6.194 2.533 6.194 7.167 0 4.633-2.727 7.2-6.16 7.2-1.987 0-3.805-1-4.478-2.6Zm6.901-4.633c0-2.566-1.447-4.133-3.535-4.133-2.053 0-3.501 1.533-3.501 4.133 0 2.634 1.448 4.134 3.535 4.134s3.501-1.534 3.501-4.134ZM103.735 10.798h3.703v2.233c.606-1.433 2.256-2.5 4.444-2.5 3.199 0 6.161 2.167 6.161 7.134 0 4.966-2.996 7.133-6.194 7.133-2.189 0-3.805-1.133-4.444-2.567v6.8h-3.704V10.798h.034Zm10.605 6.867c0-2.6-1.448-4.134-3.501-4.134-2.054 0-3.535 1.534-3.535 4.134 0 2.6 1.447 4.133 3.501 4.133 2.087-.033 3.535-1.533 3.535-4.133ZM119.929 17.667c0-4.967 3.535-7.167 7.205-7.167 3.636 0 7.171 2.2 7.171 7.167 0 5-3.535 7.2-7.171 7.2-3.67.033-7.205-2.167-7.205-7.2Zm10.706 0c0-2.567-1.448-4.134-3.535-4.134-2.054 0-3.502 1.534-3.502 4.134 0 2.633 1.448 4.133 3.536 4.133 2.053.033 3.501-1.533 3.501-4.133ZM136.695 10.8h3.67v13.766h-3.67V10.8Zm3.94-3.634c0 1.167-.943 2.1-2.122 2.1a2.102 2.102 0 0 1-2.121-2.1c0-1.166.943-2.1 2.121-2.1 1.179 0 2.122.934 2.122 2.1ZM143.26 10.798h3.704v2.2c.639-1.533 2.188-2.467 4.309-2.467 3.737 0 5.387 2.134 5.387 6.467v7.6h-3.704V17.33c0-2.533-.942-3.7-3.03-3.7-2.154 0-2.996 1.334-2.996 3.9v7.034h-3.703V10.798h.033ZM159.825 19.066v-5.5h-1.986V10.8h1.986V8.333l3.737-.767v3.267h3.805V13.6h-3.805v5.166c0 2.334.674 3.167 2.492 3.167.303 0 .606-.033 1.111-.133l.471 2.766c-.572.134-1.515.234-2.222.234-3.771 0-5.589-1.534-5.589-5.734Z"></path>
    <path fill="#145AFF" d="M36.468 4.6a32.638 32.638 0 0 0-7.777-3.3C25.728.467 22.63 0 19.5 0c-.068 0-.169.033-.236.033-.067 0-.168-.033-.236-.033h-.067C15.83 0 12.733.433 9.77 1.3a33.229 33.229 0 0 0-7.777 3.3 4.067 4.067 0 0 0-1.448 5.533L10.073 26.5c.606 1.067 1.717 1.667 2.929 1.667A3.385 3.385 0 0 0 15.93 26.5l3.266-5.633 3.265 5.633c.606 1.067 1.717 1.667 2.93 1.667A3.385 3.385 0 0 0 28.32 26.5l9.528-16.333c1.179-1.967.539-4.467-1.38-5.567ZM14.92 6.467c.236-2.067 2.087-3.7 4.31-3.8 2.221.1 4.073 1.733 4.309 3.8a4.15 4.15 0 0 1-.505 2.466L19.23 15.5l-3.804-6.533c-.404-.767-.606-1.634-.505-2.5Zm-1.313 18.666c-.168.3-.472.334-.606.334a.706.706 0 0 1-.606-.334L2.868 8.8c-.404-.667-.168-1.5.471-1.9a30.612 30.612 0 0 1 7.138-3.033c.942-.267 1.885-.467 2.861-.667-.605.9-1.01 1.9-1.144 3-.135 1.4.134 2.8.841 4.067l4.647 7.9-4.074 6.966ZM35.558 8.8l-9.527 16.333c-.168.3-.471.334-.606.334a.706.706 0 0 1-.606-.334l-4.006-6.966 4.612-7.934c.673-1.233.976-2.633.808-4.033-.101-1.1-.539-2.1-1.145-3 .943.167 1.92.4 2.862.667 2.492.7 4.915 1.733 7.137 3.033.674.367.876 1.233.472 1.9Z"></path>
</svg>